<svg id="Layer_1" data-name="Layer 1" xmlns="http://www.w3.org/2000/svg" viewBox="0 0 326.19 65.84"><defs><style>.cls-1{fill:#fff;}</style></defs><path class="cls-1" d="M35.5,47.76V60.31a5.56,5.56,0,0,1-5.67,5.53H5.52A5.44,5.44,0,0,1,0,60.31V22.88a5.51,5.51,0,0,1,5.52-5.45H29.83a5.64,5.64,0,0,1,5.67,5.45V35.36H23V28.62a.78.78,0,0,0-.64-.79H13.27a.79.79,0,0,0-.79.79v26a.74.74,0,0,0,.79.72h9.11a.71.71,0,0,0,.64-.72V47.76Z"/><path class="cls-1" d="M58.46,65.84H46.05V17.43H58.46Z"/><path class="cls-1" d="M81.18,39.23V65.84H69.71V17.43H81.18L95.67,44.11V17.43h11.47V65.84H95.31Z"/><path class="cls-1" d="M118.54,17.43h31.63v10.4H131v8.46h16.63V46.62H131v8.75h19.22V65.84H118.54Zm11.69-5.1L135.46,0h10.4l-7.74,12.33Z"/><path class="cls-1" d="M160.26,55.37H178.4c.5,0,.79-.29.79-.65v-7c0-.36-.29-.64-.79-.64H165.92a5.38,5.38,0,0,1-5.66-5.67V23.09a5.37,5.37,0,0,1,5.66-5.66h25v10.4h-17.5a.73.73,0,0,0-.71.79v7.09a.7.7,0,0,0,.71.65h12.48A5.39,5.39,0,0,1,191.6,42V60.17a5.39,5.39,0,0,1-5.67,5.67H160.26Z"/><path class="cls-1" d="M202.33,17.43H234v10.4H214.74v8.46h16.64V46.62H214.74v8.75H234V65.84H202.33Z"/><path class="cls-1" d="M244.5,17.43h31.63v10.4H256.91v8.46h16.64V46.62H256.91v8.75h19.22V65.84H244.5Z"/><path class="cls-1" d="M312.56,65.84l-9.47-18.51-3.94,6.39V65.84H286.67V17.43h12.48V37.58L311.7,17.43h13.91l-14,21,14.56,27.4Z"/></svg>